<svg width="160" height="46" viewBox="0 0 160 46" fill="none" xmlns="http://www.w3.org/2000/svg">
<path fill-rule="evenodd" clip-rule="evenodd" d="M26.25 0.77771L51.25 44.0418H30.3189V44.0203V34.7632V34.7418H34.9637L26.2286 19.3776L17.4934 34.7418H22.2668V34.7632V44.017V44.0203V44.0418H1.25L26.25 0.77771Z" fill="#00878E"/>
<path d="M69.85 34.7777H66.658V20.3777H57.802V17.8817H78.466V20.3777H69.85V34.7777ZM102.697 34.7777H99.0972L90.3852 21.1697L81.5292 34.7777H77.9772L89.2092 17.8817H91.5372L102.697 34.7777ZM129.992 34.7777H128.432L110.408 21.6257V34.7777H107.624V17.8817H110.384L127.208 30.4337V17.8817H129.992V34.7777ZM152.852 34.7777H141.692C137.852 34.7777 136.388 33.1217 136.388 30.6977V17.8817H139.58V30.7217C139.58 31.7297 140.252 32.2817 141.692 32.2817H152.18C153.62 32.2817 154.292 31.7297 154.292 30.7217V17.8817H157.484V30.6977C157.484 33.1217 156.692 34.7777 152.852 34.7777Z" fill="#00878E"/>
</svg>
