<svg width="47" height="46" viewBox="0 0 47 46" fill="none" xmlns="http://www.w3.org/2000/svg">
<rect x="1.6377" y="1.4375" width="43.125" height="43.125" rx="21.5625" fill="#15CFC5"/>
<rect x="1.6377" y="1.4375" width="43.125" height="43.125" rx="21.5625" stroke="#15CFC5" stroke-width="2.875"/>
<path d="M7.53027 38.0938H39.1553" stroke="white" stroke-width="2.15625" stroke-linecap="round" stroke-linejoin="round"/>
<path d="M34.5273 38.1085V31.6973" stroke="white" stroke-width="2.15625" stroke-linecap="round" stroke-linejoin="round"/>
<path d="M34.5551 22.125C34.1395 22.1239 33.7277 22.2049 33.3435 22.3634C32.9593 22.522 32.6102 22.7549 32.3163 23.0487C32.0224 23.3426 31.7895 23.6917 31.631 24.0759C31.4725 24.4601 31.3915 24.8719 31.3926 25.2875V28.5506C31.3926 29.3894 31.7258 30.1938 32.3189 30.7869C32.9119 31.3799 33.7163 31.7131 34.5551 31.7131C35.3938 31.7131 36.1982 31.3799 36.7913 30.7869C37.3844 30.1938 37.7176 29.3894 37.7176 28.5506V25.2875C37.7187 24.8719 37.6377 24.4601 37.4792 24.0759C37.3206 23.6917 37.0877 23.3426 36.7939 23.0487C36.5 22.7549 36.1509 22.522 35.7667 22.3634C35.3825 22.2049 34.9707 22.1239 34.5551 22.125Z" stroke="white" stroke-width="2.15625" stroke-linecap="round" stroke-linejoin="round"/>
<path d="M9.11133 38.093V15.1362C9.11133 12.2468 10.5488 10.7949 13.4095 10.7949H22.3651C25.2257 10.7949 26.6488 12.2468 26.6488 15.1362V38.093" stroke="white" stroke-width="2.15625" stroke-linecap="round" stroke-linejoin="round"/>
<path d="M14.4297 18.3281H21.5453" stroke="white" stroke-width="2.15625" stroke-linecap="round" stroke-linejoin="round"/>
<path d="M14.4297 23.7188H21.5453" stroke="white" stroke-width="2.15625" stroke-linecap="round" stroke-linejoin="round"/>
<path d="M17.9521 38.0938V32.7031" stroke="white" stroke-width="2.15625" stroke-linecap="round" stroke-linejoin="round"/>
</svg>
