<svg width="33" height="32" viewBox="0 0 33 32" fill="none" xmlns="http://www.w3.org/2000/svg">
<rect width="32" height="32" transform="translate(0.75)" fill="white"/>
<path d="M31.2678 16.2383H19.6416V27.8645H31.2678V16.2383Z" fill="#9EE0FF"/>
<path d="M17.2178 4.12891V8.48888" stroke="#9EE0FF" stroke-width="1.10884" stroke-linejoin="round"/>
<path d="M16.1655 20.3946C15.1629 20.188 14.2327 19.7204 13.4687 19.039C12.7048 18.3577 12.1343 17.4867 11.8148 16.5142C11.4954 15.5417 11.4383 14.5021 11.6494 13.5004C11.8605 12.4988 12.3323 11.5706 13.017 10.8097C13.7018 10.0489 14.5753 9.48223 15.5492 9.16712C16.5232 8.85201 17.563 8.7996 18.5637 9.01517C19.5644 9.23074 20.4905 9.70666 21.2483 10.3948C22.0061 11.083 22.5688 11.959 22.8796 12.9343" stroke="#9EE0FF" stroke-width="1.10884" stroke-linejoin="round"/>
<path d="M3.16992 9.94141H6.07621V19.6294H3.16992" stroke="#9EE0FF" stroke-width="1.10884" stroke-linejoin="round"/>
<path d="M31.7514 9.94141H27.876V12.3631" stroke="#9EE0FF" stroke-width="1.10884" stroke-linejoin="round"/>
<path d="M15.2779 25.4431H2.68359V4.12891H31.2641V12.3643" stroke="#006B9E" stroke-width="1.10884" stroke-linejoin="round"/>
<path d="M31.2624 14.7852H18.1836V27.864H31.2624V14.7852Z" stroke="#006B9E" stroke-width="1.10884" stroke-linejoin="round"/>
<path d="M22.3027 20.1131C22.9714 20.1131 23.5135 19.571 23.5135 18.9023C23.5135 18.2335 22.9714 17.6914 22.3027 17.6914C21.6339 17.6914 21.0918 18.2335 21.0918 18.9023C21.0918 19.571 21.6339 20.1131 22.3027 20.1131Z" stroke="white" stroke-width="1.10884" stroke-linejoin="round"/>
<path d="M27.6318 20.1131C28.3005 20.1131 28.8426 19.571 28.8426 18.9023C28.8426 18.2335 28.3005 17.6914 27.6318 17.6914C26.963 17.6914 26.4209 18.2335 26.4209 18.9023C26.4209 19.571 26.963 20.1131 27.6318 20.1131Z" stroke="white" stroke-width="1.10884" stroke-linejoin="round"/>
<path d="M22.3027 24.9588C22.9714 24.9588 23.5135 24.4167 23.5135 23.748C23.5135 23.0792 22.9714 22.5371 22.3027 22.5371C21.6339 22.5371 21.0918 23.0792 21.0918 23.748C21.0918 24.4167 21.6339 24.9588 22.3027 24.9588Z" stroke="white" stroke-width="1.10884" stroke-linejoin="round"/>
<path d="M27.6318 24.9588C28.3005 24.9588 28.8426 24.4167 28.8426 23.748C28.8426 23.0792 28.3005 22.5371 27.6318 22.5371C26.963 22.5371 26.4209 23.0792 26.4209 23.748C26.4209 24.4167 26.963 24.9588 27.6318 24.9588Z" stroke="white" stroke-width="1.10884" stroke-linejoin="round"/>
</svg>
