<svg width="33" height="33" viewBox="0 0 33 33" fill="none" xmlns="http://www.w3.org/2000/svg">
<rect width="32" height="32" transform="translate(0.25 0.5)" fill="white"/>
<path d="M28.8492 12.2148H4.88379V19.8403H28.8492V12.2148Z" fill="#9EE0FF"/>
<path d="M27.2144 10.0371H3.24902V29.1002H27.2144V10.0371Z" stroke="#006B9E" stroke-width="1.06665" stroke-linejoin="round"/>
<path d="M4.4746 5.67969H25.9888C26.3137 5.68025 26.6251 5.80957 26.8548 6.03928C27.0845 6.269 27.2139 6.58038 27.2144 6.90525V10.0369H3.24902V6.90525C3.24959 6.58038 3.37888 6.269 3.6086 6.03928C3.83832 5.80957 4.14973 5.68025 4.4746 5.67969Z" stroke="#006B9E" stroke-width="1.06665" stroke-linejoin="round"/>
<path d="M10.3297 14.3945H7.06152V17.6627H10.3297V14.3945Z" stroke="white" stroke-width="1.06665" stroke-linecap="round" stroke-linejoin="round"/>
<path d="M17.4118 14.3945H14.1436V17.6627H17.4118V14.3945Z" stroke="white" stroke-width="1.06665" stroke-linecap="round" stroke-linejoin="round"/>
<path d="M24.4938 14.3945H21.2256V17.6627H24.4938V14.3945Z" stroke="white" stroke-width="1.06665" stroke-linecap="round" stroke-linejoin="round"/>
<path d="M10.3297 22.0195H7.06152V25.2877H10.3297V22.0195Z" stroke="#006B9E" stroke-width="1.06665" stroke-linejoin="round"/>
<path d="M17.4118 22.0195H14.1436V25.2877H17.4118V22.0195Z" stroke="#006B9E" stroke-width="1.06665" stroke-linejoin="round"/>
<path d="M24.4938 22.0195H21.2256V25.2877H24.4938V22.0195Z" stroke="#006B9E" stroke-width="1.06665" stroke-linejoin="round"/>
<path d="M10.3286 7.85776H9.23953C8.95077 7.8572 8.67399 7.74232 8.4697 7.53823C8.26542 7.33415 8.15026 7.05747 8.14941 6.76872V4.58956C8.14941 4.30059 8.26421 4.02344 8.46855 3.8191C8.67288 3.61477 8.95002 3.5 9.23899 3.5C9.52797 3.5 9.8051 3.61477 10.0094 3.8191C10.2138 4.02344 10.3286 4.30059 10.3286 4.58956V5.13464" stroke="#9EE0FF" stroke-width="1.06665" stroke-miterlimit="10"/>
<path d="M16.3227 7.85776H15.2337C14.9449 7.8572 14.6681 7.74232 14.4638 7.53823C14.2596 7.33415 14.1444 7.05747 14.1436 6.76872V4.58956C14.1436 4.30059 14.2584 4.02344 14.4627 3.8191C14.667 3.61477 14.9442 3.5 15.2331 3.5C15.5221 3.5 15.7992 3.61477 16.0036 3.8191C16.2079 4.02344 16.3227 4.30059 16.3227 4.58956V5.13464" stroke="#9EE0FF" stroke-width="1.06665" stroke-miterlimit="10"/>
<path d="M22.3129 7.85776H21.2239C20.9351 7.8572 20.6584 7.74232 20.4541 7.53823C20.2498 7.33415 20.1346 7.05747 20.1338 6.76872V4.58956C20.1338 4.30059 20.2486 4.02344 20.4529 3.8191C20.6573 3.61477 20.9344 3.5 21.2234 3.5C21.5123 3.5 21.7895 3.61477 21.9938 3.8191C22.1981 4.02344 22.3129 4.30059 22.3129 4.58956V5.13464" stroke="#9EE0FF" stroke-width="1.06665" stroke-miterlimit="10"/>
</svg>
