<svg width="33" height="32" viewBox="0 0 33 32" fill="none" xmlns="http://www.w3.org/2000/svg">
<rect width="32" height="32" transform="translate(0.75)" fill="white"/>
<path d="M21.75 13.5L19.75 3.5L27.75 6L25.75 13.5H21.75Z" fill="#E2E5EE"/>
<path d="M26.0235 12.4733L27.75 5.99975L21.25 3.96875V7.20525C21.25 9.95325 23.344 12.2118 26.0235 12.4733Z" fill="#F2F3F7"/>
<path d="M14.25 10.9996L12.825 30.0026C12.8032 30.2727 12.6805 30.5247 12.4813 30.7085C12.2821 30.8923 12.021 30.9943 11.75 30.9943C11.479 30.9943 11.2179 30.8923 11.0187 30.7085C10.8195 30.5247 10.6968 30.2727 10.675 30.0026L9.25 10.9996L5.75 4.4996L7.482 2.7676C8.61403 1.63581 10.1492 1 11.75 1C13.3508 1 14.886 1.63581 16.018 2.7676L17.75 4.4996L14.25 10.9996Z" fill="#E2E5EE"/>
<path d="M7.75 4.6605C7.75 7.6095 10.1405 10 13.0895 10H14.7885L17.75 4.5L16.018 2.768C14.886 1.63607 13.3508 1.00011 11.75 1C10.2751 1.00215 8.85202 1.54468 7.75 2.525V4.6605Z" fill="#F2F3F7"/>
<path d="M10.675 30.003C10.6968 30.2731 10.8195 30.5251 11.0187 30.7089C11.2179 30.8927 11.479 30.9947 11.75 30.9947C12.021 30.9947 12.2821 30.8927 12.4813 30.7089C12.6805 30.5251 12.8032 30.2731 12.825 30.003L14.25 11H9.25L10.675 30.003Z" fill="#008ED1"/>
<path d="M12.25 30.872C12.4118 30.7878 12.5495 30.6638 12.6501 30.5117C12.7507 30.3596 12.8109 30.1843 12.825 30.0025L14.25 11H10.25L11.675 30.003C11.6892 30.1847 11.7495 30.3599 11.8501 30.5119C11.9506 30.6639 12.0883 30.7879 12.25 30.872Z" fill="#9EE0FF"/>
<path d="M14.1 13L14.25 11H9.25L9.4 13H14.1Z" fill="#D5D6D8"/>
<path d="M10.25 11L10.4 13H14.1L14.25 11H10.25Z" fill="#F1F1F3"/>
<path d="M12.825 30.003L12.9375 28.5H10.5625L10.675 30.003C10.6968 30.2731 10.8195 30.5251 11.0187 30.7089C11.2179 30.8927 11.479 30.9947 11.75 30.9947C12.021 30.9947 12.2821 30.8927 12.4813 30.7089C12.6805 30.5251 12.8032 30.2731 12.825 30.003Z" fill="#D5D6D8"/>
<path d="M23.75 31C24.3115 31 24.775 30.562 24.807 30.0015L25.75 13.5H21.75L22.693 30.0015C22.7083 30.2714 22.8264 30.5253 23.0229 30.711C23.2195 30.8966 23.4796 31.0001 23.75 31Z" fill="#008ED1"/>
<path d="M24.25 30.8695C24.4094 30.7846 24.5443 30.6602 24.6419 30.5082C24.7394 30.3563 24.7963 30.1818 24.807 30.0015L25.75 13.5H22.75L23.693 30.0015C23.7037 30.1818 23.7605 30.3563 23.858 30.5083C23.9556 30.6603 24.0905 30.7847 24.25 30.8695Z" fill="#9EE0FF"/>
<path d="M25.6355 15.5L25.75 13.5H21.75L21.8645 15.5H25.6355Z" fill="#D5D6D8"/>
<path d="M22.75 13.5L22.8645 15.5H25.6355L25.75 13.5H22.75Z" fill="#F1F1F3"/>
<path d="M24.8077 30.0015L24.8652 29H22.6367L22.6942 30.0015C22.7098 30.2713 22.8279 30.5249 23.0243 30.7103C23.2208 30.8958 23.4808 30.9992 23.751 30.9992C24.0212 30.9992 24.2811 30.8958 24.4776 30.7103C24.6741 30.5249 24.7922 30.2713 24.8077 30.0015Z" fill="#D5D6D8"/>
<path d="M11.5625 28.5L11.675 30.003C11.6891 30.1848 11.7493 30.3601 11.8499 30.5122C11.9505 30.6644 12.0882 30.7883 12.25 30.8725C12.4057 30.7899 12.5393 30.671 12.6395 30.526C12.6455 30.5175 12.65 30.508 12.6555 30.4995C12.694 30.44 12.725 30.376 12.751 30.3095C12.7585 30.2905 12.766 30.272 12.7725 30.2525C12.7999 30.1719 12.8173 30.0883 12.8245 30.0035L12.9375 28.5H11.5625ZM23.6355 29L23.693 30.0015C23.7038 30.1818 23.7606 30.3563 23.8581 30.5082C23.9557 30.6602 24.0906 30.7846 24.25 30.8695C24.4035 30.7865 24.534 30.667 24.631 30.5225L24.648 30.4945C24.685 30.436 24.7145 30.3725 24.7395 30.3065C24.7465 30.2875 24.754 30.269 24.76 30.2495C24.7845 30.1705 24.8025 30.088 24.8075 30.002L24.8645 29H23.6355Z" fill="#F1F1F3"/>
<path d="M16.3711 2.4145C15.1366 1.18 13.4956 0.5 11.7501 0.5C10.0046 0.5 8.36362 1.18 7.12912 2.4145L5.39662 4.1465C5.32055 4.22249 5.27101 4.32097 5.25534 4.42734C5.23967 4.53371 5.2587 4.6423 5.30962 4.737L8.75912 11.143L10.1766 30.0395C10.2381 30.859 10.9286 31.5 11.7501 31.5C12.5716 31.5 13.2621 30.859 13.3231 30.0405L14.7406 11.1435L18.1901 4.7375C18.241 4.6428 18.2601 4.53421 18.2444 4.42784C18.2287 4.32147 18.1792 4.22299 18.1031 4.147L16.3711 2.4145ZM9.78912 11.5H13.7116L13.6366 12.5H9.86412L9.78912 11.5ZM11.7501 30.5C11.6046 30.4994 11.4645 30.4442 11.3578 30.3452C11.2511 30.2461 11.1855 30.1106 11.1741 29.9655L11.1016 29H12.3986L12.3261 29.966C12.3146 30.111 12.249 30.2464 12.1423 30.3453C12.0356 30.4443 11.8956 30.4995 11.7501 30.5ZM12.4736 28H11.0266L9.93912 13.5H13.5616L12.4736 28ZM13.9511 10.5H13.3401L14.2431 5.0825L13.2566 4.918L12.3266 10.5H11.1736L10.2431 4.9175L9.25662 5.082L10.1601 10.5H9.54912L6.36662 4.5905L7.83562 3.1215C8.88162 2.076 10.2716 1.5 11.7501 1.5C13.2286 1.5 14.6186 2.076 15.6641 3.1215L17.1331 4.5905L13.9511 10.5ZM27.8991 5.5225L19.8991 3.0225C19.8163 2.99685 19.7282 2.99315 19.6436 3.01177C19.5589 3.03039 19.4805 3.07068 19.4161 3.12869C19.3517 3.18671 19.3034 3.26047 19.2761 3.34273C19.2488 3.425 19.2432 3.51296 19.2601 3.598L21.2531 13.5635L22.1941 30.03C22.2411 30.8545 22.9251 31.5 23.7501 31.5C24.5751 31.5 25.2591 30.8545 25.3061 30.03L26.2461 13.58L28.2331 6.1295C28.2664 6.00478 28.2502 5.87204 28.188 5.75896C28.1257 5.64588 28.0223 5.56117 27.8991 5.5225ZM22.2791 14H25.2206L25.1636 15H22.3361L22.2791 14ZM23.7501 30.5C23.6075 30.4999 23.4702 30.4452 23.3665 30.3473C23.2628 30.2493 23.2004 30.1154 23.1921 29.973L23.1651 29.5H24.3356L24.3086 29.9725C24.3003 30.1151 24.2379 30.2491 24.1341 30.3471C24.0303 30.4452 23.8929 30.4999 23.7501 30.5ZM24.3921 28.5H23.1076L22.3936 16H25.1066L24.3921 28.5ZM25.3661 13H24.2501V8.5H23.2501V13H22.1601L20.4061 4.229L27.1441 6.3345L25.3661 13Z" fill="#016C9E"/>
</svg>
