<svg width="33" height="33" viewBox="0 0 33 33" fill="none" xmlns="http://www.w3.org/2000/svg">
<rect width="32" height="32" transform="translate(0.25 0.5)" fill="white"/>
<path d="M24.1587 19.9617L21.9958 15.576C21.8464 15.2716 21.6145 15.0152 21.3263 14.8363C21.0382 14.6575 20.7055 14.5632 20.3664 14.5645L17.6251 16.2142L14.8838 14.5645C14.5448 14.564 14.2124 14.6585 13.9244 14.8373C13.6364 15.0161 13.4043 15.272 13.2543 15.576L11.0914 19.9617L7.79199 20.904L7.87627 22.5729L12.835 21.636L14.1357 19.4837V23.4959L12.9395 26.0622L15.7651 26.7248L21.6906 24.8308L21.1123 23.4906V19.4741L22.413 21.6264L27.3717 22.5632L27.456 20.8943L24.1566 19.9521L24.1587 19.9617Z" fill="#9EE0FF"/>
<path d="M30.104 16.4835C29.9866 12.9628 28.4908 9.62925 25.9388 7.20102C23.3869 4.77279 19.9831 3.44427 16.461 3.50179C12.9388 3.55931 9.58026 4.99826 7.10896 7.50853C4.63766 10.0188 3.25144 13.3994 3.24902 16.922" stroke="#9EE0FF" stroke-width="1.06707" stroke-linecap="round" stroke-linejoin="round" stroke-dasharray="2.13 3.2"/>
<path d="M19.2182 8.3511C19.2182 9.61238 18.5854 11.7796 16.6765 11.7796C14.7675 11.7796 14.1357 9.61665 14.1357 8.3511C14.2026 7.72377 14.4992 7.14336 14.9684 6.72157C15.4375 6.29978 16.0461 6.06641 16.677 6.06641C17.3079 6.06641 17.9164 6.29978 18.3856 6.72157C18.8548 7.14336 19.1513 7.72377 19.2182 8.3511Z" stroke="#006B9E" stroke-width="1.06707" stroke-linejoin="round"/>
<path d="M20.6948 23.9024L20.1164 22.5621V18.5456L21.4172 20.6979L26.3759 21.6348C26.5965 21.6765 26.8241 21.6618 27.0375 21.592C27.2509 21.5222 27.4432 21.3997 27.5966 21.2357L28.8323 19.9254C28.9056 19.8451 28.9494 19.7424 28.9566 19.634C28.9638 19.5256 28.9339 19.4179 28.8719 19.3287C28.8099 19.2395 28.7193 19.174 28.6152 19.143C28.511 19.112 28.3995 19.1174 28.2988 19.1581L26.4645 19.9606L23.1651 19.0183L21.0021 14.6327C20.8527 14.3282 20.6207 14.0719 20.3326 13.893C20.0445 13.7141 19.7118 13.6199 19.3727 13.6211L16.6314 15.2708L13.8901 13.6211C13.5511 13.6206 13.2187 13.7152 12.9307 13.894C12.6427 14.0728 12.4106 14.3287 12.2607 14.6327L10.0977 19.0183L6.79828 19.9606L4.96399 19.1581C4.87046 19.116 4.76569 19.1059 4.6658 19.1292C4.56591 19.1525 4.47644 19.2081 4.41124 19.2873C4.3343 19.377 4.29327 19.492 4.29603 19.6102C4.29879 19.7284 4.34515 19.8414 4.42619 19.9275L5.66188 21.2379C5.81527 21.4018 6.00757 21.5244 6.22098 21.5942C6.43439 21.6639 6.66197 21.6786 6.88259 21.637L11.8413 20.7001L13.142 18.5478V22.5643L11.8061 25.4347" stroke="#006B9E" stroke-width="1.06707" stroke-linejoin="round"/>
<path d="M26.5941 26.8079C27.3966 25.0483 25.1738 23.7379 23.3844 24.4752C21.1862 25.3876 16.4879 26.3842 14.39 27.0213C13.3229 27.3414 12.8203 29.1341 15.4368 29.0989C18.6472 28.9832 21.8432 28.6117 24.9946 27.988C25.3209 27.9161 25.6291 27.7783 25.9003 27.5831C26.1715 27.3879 26.4 27.1393 26.5717 26.8527C26.5809 26.8365 26.5891 26.8197 26.5963 26.8025L26.5941 26.8079Z" stroke="#006B9E" stroke-width="1.06707" stroke-linejoin="round"/>
<path d="M16.6297 29.0709C12.8576 29.2054 8.10379 28.7124 7.58519 28.1639C7.48459 28.0491 7.40217 27.9195 7.34082 27.7798C7.17453 27.3821 7.13045 26.944 7.21421 26.5212C7.29798 26.0984 7.50581 25.7102 7.81115 25.406C8.11649 25.1018 8.5055 24.8954 8.9286 24.8132C9.3517 24.7311 9.78969 24.7768 10.1867 24.9446C11.5824 25.5229 12.658 25.9711 13.4754 26.2251" stroke="#006B9E" stroke-width="1.06707" stroke-linejoin="round"/>
<path d="M22.2744 24.9297L23.1067 28.323" stroke="#006B9E" stroke-width="1.06707" stroke-linejoin="round"/>
</svg>
