<svg width="34" height="32" viewBox="0 0 34 32" fill="none" xmlns="http://www.w3.org/2000/svg">
<path d="M18.6964 3.7535V2.3765C18.6964 2.01143 18.5513 1.66131 18.2932 1.40317C18.035 1.14502 17.6849 1 17.3199 1C16.9548 1 16.6047 1.14502 16.3465 1.40317C16.0884 1.66131 15.9434 2.01143 15.9434 2.3765V3.7525L18.6964 3.7535Z" fill="#9EE0FF"/>
<path d="M30.81 15.8669C30.81 12.6543 29.5338 9.57335 27.2622 7.30172C24.9905 5.0301 21.9096 3.75391 18.697 3.75391C15.4844 3.75391 12.4034 5.0301 10.1318 7.30172C7.86018 9.57335 6.58398 12.6543 6.58398 15.8669H30.81Z" fill="#9EE0FF"/>
<path d="M6.03325 19.7161H2.73326C2.50975 19.7271 2.28632 19.6926 2.07655 19.6146C1.86678 19.5367 1.67504 19.4169 1.51295 19.2626C1.35087 19.1083 1.22183 18.9227 1.13365 18.717C1.04548 18.5113 1 18.2899 1 18.0661C1 17.8423 1.04548 17.6208 1.13365 17.4151C1.22183 17.2095 1.35087 17.0238 1.51295 16.8695C1.67504 16.7152 1.86678 16.5955 2.07655 16.5175C2.28632 16.4396 2.50975 16.4051 2.73326 16.4161H31.3643C31.5878 16.4051 31.8112 16.4396 32.021 16.5175C32.2308 16.5955 32.4225 16.7152 32.5846 16.8695C32.7467 17.0238 32.8757 17.2095 32.9639 17.4151C33.0521 17.6208 33.0975 17.8423 33.0975 18.0661C33.0975 18.2899 33.0521 18.5113 32.9639 18.717C32.8757 18.9227 32.7467 19.1083 32.5846 19.2626C32.4225 19.4169 32.2308 19.5367 32.021 19.6146C31.8112 19.6926 31.5878 19.7271 31.3643 19.7161H30.2643" stroke="#006B9E" stroke-width="1.2" stroke-linejoin="round"/>
<path d="M30.8102 15.8669C30.8102 9.17691 24.6493 3.75391 17.0453 3.75391C9.44126 3.75391 3.28125 9.17691 3.28125 15.8669" stroke="#006B9E" stroke-width="1.2" stroke-linejoin="round"/>
<path d="M18.6964 3.7535V2.3765C18.6964 2.01143 18.5513 1.66131 18.2932 1.40317C18.035 1.14502 17.6849 1 17.3199 1C16.9548 1 16.6047 1.14502 16.3465 1.40317C16.0884 1.66131 15.9434 2.01143 15.9434 2.3765V3.7525" stroke="#006B9E" stroke-width="1.2" stroke-linejoin="round"/>
<path d="M26.9565 14.7637C26.9574 13.3069 26.5451 11.8797 25.7673 10.6479C24.9895 9.41607 23.8782 8.43017 22.5625 7.80469" stroke="white" stroke-width="1.2" stroke-linecap="round" stroke-linejoin="round"/>
<path d="M21.7579 21.626L27.9849 18.796C28.1834 18.7065 28.3991 18.6615 28.6169 18.6642C28.8346 18.6669 29.0491 18.7172 29.2453 18.8117C29.4415 18.9061 29.6147 19.0424 29.7527 19.2109C29.8906 19.3793 29.99 19.576 30.0439 19.787C30.0812 19.9497 30.0691 20.1198 30.0093 20.2757C29.9494 20.4315 29.8445 20.566 29.7079 20.662L19.9299 27.715C19.5497 27.963 19.1188 28.1229 18.6689 28.183L7.48691 29.741L7.33789 29.785" stroke="#006B9E" stroke-width="1.2" stroke-linejoin="round"/>
<path d="M14.8426 24.1146L21.0146 22.2816C21.2261 22.2163 21.4069 22.0766 21.5233 21.8883C21.6396 21.7001 21.6838 21.476 21.6476 21.2576C21.5788 20.9442 21.446 20.6484 21.2577 20.3886C21.0693 20.1289 20.8293 19.9108 20.5528 19.7481C20.2763 19.5853 19.9692 19.4814 19.6506 19.4427C19.3321 19.4041 19.009 19.4316 18.7016 19.5236L15.3206 20.5236C14.2176 20.8477 13.0503 20.8856 11.9286 20.6336C10.5429 20.3965 9.11897 20.5346 7.80463 21.0336C5.97163 21.6336 5.29362 23.2136 4.76562 23.3736" stroke="#006B9E" stroke-width="1.2" stroke-linejoin="round"/>
<path d="M4.45535 22.0224L1.81641 22.8066L4.32567 31.2507L6.96461 30.4665L4.45535 22.0224Z" stroke="#006B9E" stroke-width="1.2" stroke-linejoin="round"/>
</svg>
