<svg width="33" height="33" viewBox="0 0 33 33" fill="none" xmlns="http://www.w3.org/2000/svg">
<rect width="32" height="32" transform="translate(0.75 0.5)" fill="white"/>
<path d="M8.33008 14.3711L9.98032 14.0967C11.0677 13.9158 12.1774 13.9158 13.2648 14.0967L14.915 14.3711L14.6406 12.7208C14.4597 11.6335 14.4597 10.5237 14.6406 9.4364L14.915 7.78615L13.2648 8.06052C12.1774 8.24146 11.0677 8.24146 9.98032 8.06052L8.33008 7.78516L8.60444 9.43539C8.78536 10.5227 8.78536 11.6325 8.60444 12.7198L8.33008 14.3711Z" fill="#9EE0FF"/>
<path d="M17.6533 14.3711L19.3036 14.0967C20.3909 13.9158 21.5007 13.9158 22.588 14.0967L24.2382 14.3711L23.9639 12.7208C23.783 11.6335 23.783 10.5237 23.9639 9.4364L24.2382 7.78615L22.588 8.06052C21.5007 8.24146 20.3909 8.24146 19.3036 8.06052L17.6533 7.78516L17.9277 9.43539C18.1086 10.5227 18.1086 11.6325 17.9277 12.7198L17.6533 14.3711Z" fill="#9EE0FF"/>
<path d="M29.6211 21.5H4.58615C3.92804 21.5 3.39453 22.0335 3.39453 22.6916V24.1466C3.39453 24.8047 3.92804 25.3382 4.58615 25.3382H29.6211C30.2792 25.3382 30.8127 24.8047 30.8127 24.1466V22.6916C30.8127 22.0335 30.2792 21.5 29.6211 21.5Z" fill="#9EE0FF"/>
<path d="M2.46798 19.8535H30.1004C30.2906 19.8543 30.4727 19.9302 30.6072 20.0647C30.7417 20.1992 30.8176 20.3813 30.8184 20.5715V23.5275C30.8176 23.7177 30.7417 23.8998 30.6072 24.0343C30.4727 24.1688 30.2906 24.2447 30.1004 24.2455H2.46798C2.27781 24.2447 2.09564 24.1688 1.96116 24.0343C1.82669 23.8998 1.75079 23.7177 1.75 23.5275V20.5715C1.75079 20.3813 1.82669 20.1992 1.96116 20.0647C2.09564 19.9302 2.27781 19.8543 2.46798 19.8535Z" stroke="#016C9E" stroke-width="1.00136" stroke-linejoin="round"/>
<path d="M4.49121 11.0799V9.89531C4.49121 9.1867 4.63081 8.48503 4.90202 7.83038C5.17322 7.17572 5.57071 6.58091 6.07181 6.0799C6.57292 5.57889 7.1678 5.18149 7.82251 4.91041C8.47721 4.63933 9.17892 4.49987 9.88753 4.5H22.6809C23.3896 4.49987 24.0913 4.63936 24.7461 4.9105C25.4009 5.18164 25.9958 5.57913 26.4969 6.08025C26.998 6.58137 27.3955 7.17631 27.6666 7.83108C27.9378 8.48585 28.0773 9.18763 28.0771 9.89632V11.6287" stroke="#9EE0FF" stroke-width="1.00136" stroke-linejoin="round"/>
<path d="M24.2324 13.8223H26.9741C27.2622 13.8221 27.5475 13.8788 27.8137 13.9889C28.0798 14.0991 28.3217 14.2606 28.5254 14.4642C28.7292 14.6679 28.8908 14.9097 29.0011 15.1758C29.1114 15.4419 29.1681 15.7272 29.1681 16.0152V19.8534" stroke="#016C9E" stroke-width="1.00136" stroke-linejoin="round"/>
<path d="M14.9111 13.8223H17.6528" stroke="#016C9E" stroke-width="1.00136" stroke-linejoin="round"/>
<path d="M3.39453 19.8544V16.0152C3.39453 15.4336 3.62559 14.8758 4.03685 14.4646C4.44811 14.0533 5.00589 13.8223 5.5875 13.8223H8.32923" stroke="#016C9E" stroke-width="1.00136" stroke-linejoin="round"/>
<path d="M8.33008 14.3711L9.98032 14.0967C11.0677 13.9158 12.1774 13.9158 13.2648 14.0967L14.915 14.3711L14.6406 12.7208C14.4597 11.6335 14.4597 10.5237 14.6406 9.4364L14.915 7.78615L13.2648 8.06052C12.1774 8.24146 11.0677 8.24146 9.98032 8.06052L8.33008 7.78516L8.60444 9.43539C8.78536 10.5227 8.78536 11.6325 8.60444 12.7198L8.33008 14.3711Z" stroke="#016C9E" stroke-width="1.00136" stroke-linejoin="round"/>
<path d="M17.6533 14.3711L19.3036 14.0967C20.3909 13.9158 21.5007 13.9158 22.588 14.0967L24.2382 14.3711L23.9639 12.7208C23.783 11.6335 23.783 10.5237 23.9639 9.4364L24.2382 7.78615L22.588 8.06052C21.5007 8.24146 20.3909 8.24146 19.3036 8.06052L17.6533 7.78516L17.9277 9.43539C18.1086 10.5227 18.1086 11.6325 17.9277 12.7198L17.6533 14.3711Z" stroke="#016C9E" stroke-width="1.00136" stroke-linejoin="round"/>
<path d="M5.03906 24.2402V27.5307H7.78078V24.2402" stroke="#016C9E" stroke-width="1.00136" stroke-linejoin="round"/>
<path d="M24.7812 24.2402V27.5307H27.523V24.2402" stroke="#016C9E" stroke-width="1.00136" stroke-linejoin="round"/>
</svg>
