<svg width="33" height="32" viewBox="0 0 33 32" fill="none" xmlns="http://www.w3.org/2000/svg">
<rect width="32" height="32" transform="translate(0.25)" fill="white"/>
<path d="M28.2372 14.2607L23.6048 5.97679C23.3903 5.58511 23.0729 5.25948 22.6868 5.03507C22.3007 4.81066 21.8607 4.696 21.4142 4.70348H11.8901C11.4435 4.69584 11.0033 4.81042 10.617 5.03484C10.2308 5.25926 9.91324 5.58498 9.6987 5.97679L5.06628 14.2607C4.7649 14.84 4.60686 15.4832 4.60547 16.1362L5.0907 21.9268C5.08981 22.05 5.10598 22.1728 5.13873 22.2916C5.24289 22.6294 5.45462 22.924 5.74168 23.1304C6.02874 23.3368 6.37538 23.4437 6.72883 23.4348H26.5694C26.923 23.4443 27.2699 23.3376 27.5571 23.1311C27.8442 22.9246 28.0559 22.6297 28.1595 22.2916C28.1919 22.1727 28.2081 22.05 28.2075 21.9268L28.6927 16.1362C28.6911 15.482 28.5328 14.8377 28.2311 14.2572L28.2372 14.2607Z" fill="#9EE0FF"/>
<path d="M6.14551 23.4434V26.3845C6.14011 26.4978 6.1571 26.611 6.1955 26.7178C6.23391 26.8245 6.29298 26.9226 6.36934 27.0065C6.44569 27.0904 6.53783 27.1584 6.64049 27.2067C6.74315 27.2549 6.85429 27.2825 6.96761 27.2877H9.173C9.40136 27.276 9.61584 27.1744 9.76967 27.0052C9.92349 26.836 10.0042 26.6129 9.99424 26.3845V23.4434" stroke="#006B9E" stroke-width="1.04727" stroke-linejoin="round"/>
<path d="M26.8057 23.4434V26.3845C26.8111 26.4977 26.7941 26.6109 26.7558 26.7176C26.7174 26.8242 26.6585 26.9223 26.5822 27.0062C26.5059 27.0901 26.4139 27.1581 26.3113 27.2064C26.2088 27.2547 26.0977 27.2823 25.9845 27.2877H23.7791C23.5507 27.276 23.3363 27.1744 23.1824 27.0052C23.0286 26.836 22.9479 26.6129 22.9579 26.3845V23.4434" stroke="#006B9E" stroke-width="1.04727" stroke-linejoin="round"/>
<path d="M28.2372 14.2607L23.6048 5.97679C23.3903 5.58511 23.0729 5.25948 22.6868 5.03507C22.3007 4.81066 21.8607 4.696 21.4142 4.70348H11.8901C11.4435 4.69584 11.0033 4.81042 10.617 5.03484C10.2308 5.25926 9.91324 5.58498 9.6987 5.97679L5.06628 14.2607C4.7649 14.84 4.60686 15.4832 4.60547 16.1362L5.0907 21.9268C5.08981 22.05 5.10598 22.1728 5.13873 22.2916C5.24289 22.6294 5.45462 22.924 5.74168 23.1304C6.02874 23.3368 6.37538 23.4437 6.72883 23.4348H26.5694C26.923 23.4443 27.2699 23.3376 27.5571 23.1311C27.8442 22.9246 28.0559 22.6297 28.1595 22.2916C28.1919 22.1727 28.2081 22.05 28.2075 21.9268L28.6927 16.1362C28.6911 15.482 28.5328 14.8377 28.2311 14.2572L28.2372 14.2607Z" stroke="#006B9E" stroke-width="1.04727" stroke-linejoin="round"/>
<path d="M24.3289 10.6629L22.1715 6.85252C22.052 6.63889 21.8778 6.4609 21.6667 6.33683C21.4557 6.21275 21.2155 6.14706 20.9707 6.14648H12.3211C12.0764 6.14769 11.8364 6.21365 11.6255 6.33766C11.4146 6.46167 11.2402 6.63931 11.1202 6.85252L8.96282 10.6629C8.91832 10.7402 8.89478 10.8279 8.89453 10.9172C8.89428 11.0065 8.91732 11.0943 8.96138 11.1719C9.00545 11.2496 9.06902 11.3144 9.14579 11.3599C9.22257 11.4055 9.30992 11.4302 9.39919 11.4317H23.8864C23.9757 11.4302 24.0631 11.4055 24.1398 11.3599C24.2166 11.3144 24.2802 11.2496 24.3242 11.1719C24.3683 11.0943 24.3913 11.0065 24.3911 10.9172C24.3908 10.8279 24.3673 10.7402 24.3228 10.6629H24.3289Z" fill="white"/>
<path d="M6.75992 17.2005H8.9077C9.29956 17.2021 9.68359 17.3103 10.0187 17.5134C10.3538 17.7164 10.6275 18.0068 10.8102 18.3534L11.0075 18.7235C11.0831 18.8628 11.1214 19.0194 11.1188 19.1779C11.1161 19.3365 11.0726 19.4916 10.9923 19.6284C10.9121 19.7652 10.7979 19.8789 10.6608 19.9586C10.5237 20.0382 10.3684 20.0812 10.2098 20.0832H8.43642C8.06114 20.0814 7.69506 19.9669 7.38568 19.7544C7.0763 19.542 6.8379 19.2415 6.70143 18.8919L6.3026 17.8778C6.27198 17.8031 6.2601 17.722 6.268 17.6417C6.2759 17.5613 6.30334 17.4841 6.34793 17.4168C6.39251 17.3495 6.45289 17.2942 6.52379 17.2556C6.59469 17.2169 6.67395 17.1963 6.75467 17.1953L6.75992 17.2005Z" stroke="white" stroke-width="1.04727" stroke-linecap="round" stroke-linejoin="round"/>
<path d="M26.734 17.2005H24.5862C24.1943 17.2021 23.8103 17.3103 23.4752 17.5134C23.14 17.7164 22.8664 18.0068 22.6837 18.3534L22.4864 18.7235C22.4108 18.8628 22.3725 19.0194 22.3751 19.1779C22.3778 19.3365 22.4213 19.4916 22.5016 19.6284C22.5818 19.7652 22.696 19.8789 22.8331 19.9586C22.9702 20.0382 23.1256 20.0812 23.2841 20.0832H25.0575C25.4328 20.0814 25.7988 19.9669 26.1082 19.7544C26.4176 19.542 26.656 19.2415 26.7925 18.8919L27.1913 17.8778C27.2219 17.8031 27.2338 17.722 27.2259 17.6417C27.218 17.5613 27.1905 17.4841 27.146 17.4168C27.1014 17.3495 27.041 17.2942 26.9701 17.2556C26.8992 17.2169 26.8199 17.1963 26.7392 17.1953L26.734 17.2005Z" stroke="white" stroke-width="1.04727" stroke-linecap="round" stroke-linejoin="round"/>
<path d="M12.3916 23.4436V21.1946C12.3797 20.9119 12.4802 20.6361 12.671 20.4273C12.8618 20.2185 13.1275 20.0937 13.41 20.0801H20.0175C20.3 20.0937 20.5657 20.2185 20.7565 20.4273C20.9473 20.6361 21.0478 20.9119 21.0359 21.1946V23.4436" stroke="#006B9E" stroke-width="1.04727" stroke-linejoin="round"/>
<path d="M27.8136 10.6284L27.9436 9.71551C27.9696 9.52505 28.0633 9.35031 28.2075 9.22324C28.3517 9.09616 28.5368 9.02524 28.729 9.02344H29.3923C29.4955 9.02435 29.5974 9.04557 29.6924 9.08589C29.7873 9.12621 29.8734 9.18483 29.9457 9.25842C30.018 9.332 30.0751 9.41911 30.1137 9.51476C30.1523 9.61041 30.1717 9.71273 30.1708 9.81588V10.6327C30.1717 10.7359 30.1523 10.8382 30.1137 10.9339C30.0751 11.0295 30.018 11.1166 29.9457 11.1902C29.8734 11.2638 29.7873 11.3224 29.6924 11.3627C29.5974 11.4031 29.4955 11.4243 29.3923 11.4252H26.8047" stroke="#006B9E" stroke-width="1.04727" stroke-linejoin="round"/>
<path d="M5.61814 10.6284L5.48809 9.71551C5.46211 9.52505 5.36846 9.35031 5.22423 9.22324C5.08001 9.09616 4.89485 9.02524 4.70264 9.02344H4.03936C3.93614 9.02446 3.83413 9.04583 3.73917 9.08631C3.64421 9.12678 3.55816 9.18558 3.48594 9.25934C3.41372 9.3331 3.35675 9.42038 3.31828 9.51617C3.27982 9.61196 3.26062 9.7144 3.26177 9.81762V10.6345C3.26085 10.7376 3.28025 10.84 3.31887 10.9356C3.35749 11.0313 3.41459 11.1184 3.48687 11.1919C3.55916 11.2655 3.64524 11.3242 3.74019 11.3645C3.83513 11.4048 3.93709 11.426 4.04024 11.4269H6.62526" stroke="#006B9E" stroke-width="1.04727" stroke-linejoin="round"/>
<path d="M3.26172 27.2871H29.6896" stroke="#006B9E" stroke-width="1.04727" stroke-linejoin="round"/>
</svg>
