<svg width="33" height="32" viewBox="0 0 33 32" fill="none" xmlns="http://www.w3.org/2000/svg">
<rect width="32" height="32" transform="translate(0.25)" fill="white"/>
<path d="M11.5938 10.3281H21.9943L21.1984 3.24975C21.2037 2.94321 21.095 2.64563 20.8933 2.41472C20.6916 2.18381 20.4114 2.03601 20.1069 2H13.4812C13.1767 2.03601 12.8965 2.18381 12.6948 2.41472C12.4931 2.64563 12.3844 2.94321 12.3897 3.24975L11.5938 10.3281Z" fill="#9EE0FF"/>
<path d="M12.3086 20.8438L14.1087 21.891H17.4309L19.2357 20.8438" stroke="#9EE0FF" stroke-width="1.16364" stroke-linejoin="round"/>
<path d="M17.4332 22.3594H13.8516L15.0408 24.1456L14.1343 27.6016L15.6471 29.9288L17.1505 27.6016L16.2487 24.1456L17.4332 22.3594Z" fill="#9EE0FF"/>
<path d="M21.7558 10.3984L20.9599 14.4514C20.8368 15.7565 20.2313 16.9687 19.2618 17.851C18.2923 18.7334 17.0286 19.2223 15.7177 19.2223C14.4068 19.2223 13.1431 18.7334 12.1736 17.851C11.2041 16.9687 10.5986 15.7565 10.4755 14.4514L10.1055 10.3984" stroke="#006B9E" stroke-width="1.16364" stroke-linejoin="round"/>
<path d="M10.681 14.493H9.82923C9.53275 14.4924 9.24607 14.3869 9.01989 14.1953C8.79371 14.0036 8.64265 13.7381 8.59347 13.4457L8.27461 11.5443C8.25903 11.4521 8.26376 11.3577 8.28846 11.2675C8.31316 11.1773 8.35726 11.0937 8.41765 11.0223C8.47804 10.9509 8.55327 10.8936 8.6381 10.8544C8.72294 10.8151 8.81532 10.7948 8.90881 10.7949H9.75593" stroke="#006B9E" stroke-width="1.16364" stroke-linejoin="round"/>
<path d="M20.8594 14.4925H21.8589C22.1218 14.4922 22.376 14.3984 22.576 14.2279C22.776 14.0573 22.9087 13.8211 22.9504 13.5616L23.2995 11.4473C23.3132 11.3659 23.309 11.2825 23.2872 11.2029C23.2654 11.1233 23.2265 11.0494 23.1732 10.9864C23.1199 10.9234 23.0535 10.8727 22.9787 10.838C22.9038 10.8032 22.8223 10.7852 22.7398 10.7852H21.7903" stroke="#006B9E" stroke-width="1.16364" stroke-linejoin="round"/>
<path d="M4.25 27.039C5.75455 24.414 8.18249 22.4431 11.0608 21.5105L11.5332 21.3581C11.825 21.2627 12.0792 21.0775 12.2596 20.8291C12.4399 20.5806 12.5371 20.2815 12.5374 19.9745V18.1953" stroke="#006B9E" stroke-width="1.16364" stroke-linejoin="round"/>
<path d="M27.3166 27.037C25.8137 24.3952 23.378 22.4102 20.4872 21.4713L20.0148 21.3189C19.7237 21.2235 19.4702 21.0388 19.2901 20.791C19.11 20.5433 19.0126 20.2451 19.0117 19.9388V18.1934" stroke="#006B9E" stroke-width="1.16364" stroke-linejoin="round"/>
<path d="M11.5508 21.457L15.6409 29.6141L19.7032 21.457" stroke="#006B9E" stroke-width="1.16364" stroke-linejoin="round"/>
<path d="M9.84947 10.3281H21.9851L21.0541 3.24975C21.0341 2.91967 20.892 2.60884 20.6554 2.37782C20.4187 2.1468 20.1046 2.01211 19.7741 2H12.0429C11.7127 2.01289 11.399 2.14783 11.1626 2.37869C10.9261 2.60956 10.7837 2.91994 10.7629 3.24975L9.83203 10.3281H9.84947Z" stroke="#006B9E" stroke-width="1.16364" stroke-linejoin="round"/>
<path d="M15.7695 4.3125V8.01403" stroke="white" stroke-width="1.16364" stroke-linecap="round" stroke-linejoin="round"/>
<path d="M13.918 6.16406H17.6195" stroke="white" stroke-width="1.16364" stroke-linecap="round" stroke-linejoin="round"/>
<path d="M8.05859 23.2051L11.1446 24.6713L10.6791 26.689L12.9924 29.761" stroke="#006B9E" stroke-width="1.16364" stroke-linejoin="round"/>
<path d="M23.176 22.8203L20.09 24.6705L20.5555 26.6882L18.2422 29.7602" stroke="#006B9E" stroke-width="1.16364" stroke-linejoin="round"/>
</svg>
