<svg width="25" height="24" viewBox="0 0 25 24" fill="none" xmlns="http://www.w3.org/2000/svg">
<path d="M9.20029 19.5C9.20029 19.6989 9.12127 19.8897 8.98062 20.0303C8.83997 20.171 8.6492 20.25 8.45029 20.25H3.95029C3.55545 20.2498 3.16762 20.1456 2.82577 19.948C2.48392 19.7505 2.20008 19.4664 2.00276 19.1244C1.80544 18.7824 1.7016 18.3945 1.70166 17.9997C1.70172 17.6048 1.80568 17.2169 2.0031 16.875L5.21779 11.3203L3.9006 11.6719C3.80519 11.6974 3.70569 11.7038 3.60779 11.6908C3.50988 11.6779 3.41549 11.6457 3.33001 11.5963C3.15736 11.4964 3.03145 11.3321 2.97998 11.1394C2.92851 10.9467 2.9557 10.7414 3.05556 10.5688C3.15542 10.3961 3.31978 10.2702 3.51248 10.2187L6.58467 9.39656C6.67983 9.37104 6.7791 9.36453 6.87678 9.37739C6.97447 9.39025 7.06866 9.42224 7.15398 9.47151C7.2393 9.52079 7.31408 9.5864 7.37404 9.66458C7.43399 9.74277 7.47796 9.832 7.50342 9.92718L8.32748 12.9994C8.35351 13.095 8.36033 13.1948 8.34757 13.293C8.3348 13.3913 8.30269 13.4861 8.25309 13.5718C8.20349 13.6576 8.13738 13.7327 8.05859 13.7928C7.9798 13.8529 7.88988 13.8967 7.79404 13.9219C7.73036 13.9385 7.66484 13.947 7.59904 13.9472C7.43405 13.947 7.27372 13.8925 7.14288 13.792C7.01203 13.6915 6.91798 13.5506 6.87529 13.3912L6.51904 12.0647L3.30435 17.625C3.23868 17.7387 3.20403 17.8678 3.20387 17.9991C3.20371 18.1305 3.23805 18.2595 3.30345 18.3735C3.36886 18.4874 3.46303 18.5821 3.57654 18.6482C3.69006 18.7143 3.81894 18.7494 3.95029 18.75H8.45029C8.6492 18.75 8.83997 18.829 8.98062 18.9697C9.12127 19.1103 9.20029 19.3011 9.20029 19.5ZM22.3937 16.875L20.2244 13.125C20.1206 12.9617 19.9577 12.8449 19.7698 12.7989C19.582 12.7529 19.3836 12.7812 19.2161 12.878C19.0486 12.9748 18.925 13.1326 18.8711 13.3184C18.8172 13.5042 18.8372 13.7036 18.9269 13.875L21.0962 17.625C21.1619 17.7387 21.1966 17.8678 21.1967 17.9991C21.1969 18.1305 21.1625 18.2595 21.0971 18.3735C21.0317 18.4874 20.9376 18.5821 20.824 18.6482C20.7105 18.7143 20.5816 18.7494 20.4503 18.75H14.0106L14.98 17.7806C15.1207 17.64 15.1998 17.4493 15.1999 17.2503C15.2 17.0514 15.1211 16.8606 14.9804 16.7198C14.8398 16.5791 14.6491 16.5 14.4502 16.4999C14.2512 16.4998 14.0604 16.5788 13.9197 16.7194L11.6697 18.9694C11.5999 19.039 11.5446 19.1217 11.5069 19.2128C11.4691 19.3038 11.4497 19.4014 11.4497 19.5C11.4497 19.5986 11.4691 19.6962 11.5069 19.7872C11.5446 19.8783 11.5999 19.961 11.6697 20.0306L13.9197 22.2806C13.9893 22.3502 14.0721 22.4055 14.1631 22.4431C14.2541 22.4808 14.3517 22.5001 14.4502 22.5001C14.5487 22.5 14.6462 22.4806 14.7372 22.4429C14.8282 22.4051 14.9108 22.3498 14.9804 22.2802C15.0501 22.2105 15.1053 22.1278 15.1429 22.0367C15.1806 21.9457 15.2 21.8482 15.1999 21.7497C15.1999 21.6512 15.1804 21.5536 15.1427 21.4626C15.1049 21.3717 15.0497 21.289 14.98 21.2194L14.0106 20.25H20.4503C20.8451 20.2498 21.233 20.1456 21.5748 19.948C21.9167 19.7505 22.2005 19.4664 22.3978 19.1244C22.5951 18.7824 22.699 18.3945 22.6989 17.9997C22.6989 17.6048 22.5949 17.2169 22.3975 16.875H22.3937ZM12.2003 3C12.3321 2.99867 12.4618 3.03278 12.576 3.09875C12.6901 3.16471 12.7844 3.26012 12.849 3.375L16.0637 8.92968L14.7437 8.57531C14.554 8.53077 14.3543 8.56186 14.1871 8.662C14.0198 8.76214 13.8981 8.92346 13.8478 9.11178C13.7974 9.3001 13.8224 9.50062 13.9174 9.67085C14.0123 9.84109 14.1699 9.96766 14.3565 10.0237L17.4297 10.8478C17.493 10.8644 17.5582 10.873 17.6237 10.8731C17.7887 10.873 17.949 10.8184 18.0799 10.7179C18.2107 10.6174 18.3048 10.4766 18.3475 10.3172L19.1715 7.24312C19.1998 7.14715 19.2086 7.04648 19.1974 6.94705C19.1862 6.84762 19.1552 6.75144 19.1063 6.66417C19.0573 6.5769 18.9914 6.50031 18.9124 6.4389C18.8334 6.3775 18.7429 6.33252 18.6463 6.30662C18.5496 6.28073 18.4488 6.27443 18.3496 6.2881C18.2505 6.30178 18.1551 6.33515 18.0691 6.38625C17.9831 6.43735 17.9082 6.50515 17.8487 6.58565C17.7893 6.66615 17.7466 6.75773 17.7231 6.855L17.3669 8.18343L14.1475 2.625C13.9498 2.28359 13.6659 2.00016 13.3241 1.80312C12.9823 1.60609 12.5948 1.50237 12.2003 1.50237C11.8058 1.50237 11.4182 1.60609 11.0765 1.80312C10.7347 2.00016 10.4508 2.28359 10.2531 2.625L8.08185 6.375C7.98856 6.54679 7.96604 6.74823 8.01908 6.93639C8.07212 7.12455 8.19654 7.28456 8.36582 7.38234C8.5351 7.48012 8.73587 7.50794 8.92536 7.45987C9.11485 7.4118 9.27809 7.29164 9.38029 7.125L11.5515 3.375C11.6162 3.26012 11.7105 3.16471 11.8246 3.09875C11.9387 3.03278 12.0685 2.99867 12.2003 3Z" fill="#3B8BDB"/>
</svg>
