<svg width="24" height="24" viewBox="0 0 24 24" fill="none" xmlns="http://www.w3.org/2000/svg">
<path d="M20.25 2H6.75C5.75544 2 4.80161 2.39509 4.09835 3.09835C3.39509 3.80161 3 4.75544 3 5.75V12.5C3 13.0967 3.23705 13.669 3.65901 14.091C4.08097 14.5129 4.65326 14.75 5.25 14.75H9.75L9.01031 19.1253C9.00358 19.1665 9.00013 19.2082 9 19.25C9 20.0456 9.31607 20.8087 9.87868 21.3713C10.4413 21.9339 11.2044 22.25 12 22.25C12.7956 22.25 13.5587 21.9339 14.1213 21.3713C14.6839 20.8087 15 20.0456 15 19.25C14.9999 19.2082 14.9964 19.1665 14.9897 19.1253L14.25 14.75H18.75C19.3467 14.75 19.919 14.5129 20.341 14.091C20.7629 13.669 21 13.0967 21 12.5V2.75C21 2.55109 20.921 2.36032 20.7803 2.21967C20.6397 2.07902 20.4489 2 20.25 2ZM6.75 3.5H16.5V7.25C16.5 7.44891 16.579 7.63968 16.7197 7.78033C16.8603 7.92098 17.0511 8 17.25 8C17.4489 8 17.6397 7.92098 17.7803 7.78033C17.921 7.63968 18 7.44891 18 7.25V3.5H19.5V9.5H4.5V5.75C4.5 5.15326 4.73705 4.58097 5.15901 4.15901C5.58097 3.73705 6.15326 3.5 6.75 3.5ZM18.75 13.25H14.25C14.0351 13.25 13.8227 13.2962 13.6272 13.3854C13.4317 13.4746 13.2577 13.6048 13.1169 13.7671C12.9761 13.9294 12.8718 14.1201 12.8111 14.3262C12.7504 14.5324 12.7346 14.7491 12.765 14.9619V14.9806L13.5 19.3063C13.5 19.7041 13.342 20.0856 13.0607 20.3669C12.7794 20.6482 12.3978 20.8063 12 20.8063C11.6022 20.8063 11.2206 20.6482 10.9393 20.3669C10.658 20.0856 10.5 19.7041 10.5 19.3063L11.2313 14.9806V14.9619C11.2616 14.7495 11.2459 14.533 11.1855 14.3271C11.125 14.1213 11.021 13.9308 10.8806 13.7685C10.7402 13.6062 10.5666 13.476 10.3716 13.3865C10.1765 13.2971 9.96457 13.2505 9.75 13.25H5.25C5.05109 13.25 4.86032 13.171 4.71967 13.0303C4.57902 12.8897 4.5 12.6989 4.5 12.5V11H19.5V12.5C19.5 12.6989 19.421 12.8897 19.2803 13.0303C19.1397 13.171 18.9489 13.25 18.75 13.25Z" fill="#3B8BDB"/>
</svg>
