<svg width="25" height="24" viewBox="0 0 25 24" fill="none" xmlns="http://www.w3.org/2000/svg">
<path d="M10.1501 3.75H5.65015C5.25232 3.75 4.87079 3.90804 4.58949 4.18934C4.30818 4.47064 4.15015 4.85218 4.15015 5.25V9.75C4.15015 10.1478 4.30818 10.5294 4.58949 10.8107C4.87079 11.092 5.25232 11.25 5.65015 11.25H10.1501C10.548 11.25 10.9295 11.092 11.2108 10.8107C11.4921 10.5294 11.6501 10.1478 11.6501 9.75V5.25C11.6501 4.85218 11.4921 4.47064 11.2108 4.18934C10.9295 3.90804 10.548 3.75 10.1501 3.75ZM10.1501 9.75H5.65015V5.25H10.1501V9.75ZM19.1501 3.75H14.6501C14.2523 3.75 13.8708 3.90804 13.5895 4.18934C13.3082 4.47064 13.1501 4.85218 13.1501 5.25V9.75C13.1501 10.1478 13.3082 10.5294 13.5895 10.8107C13.8708 11.092 14.2523 11.25 14.6501 11.25H19.1501C19.548 11.25 19.9295 11.092 20.2108 10.8107C20.4921 10.5294 20.6501 10.1478 20.6501 9.75V5.25C20.6501 4.85218 20.4921 4.47064 20.2108 4.18934C19.9295 3.90804 19.548 3.75 19.1501 3.75ZM19.1501 9.75H14.6501V5.25H19.1501V9.75ZM10.1501 12.75H5.65015C5.25232 12.75 4.87079 12.908 4.58949 13.1893C4.30818 13.4706 4.15015 13.8522 4.15015 14.25V18.75C4.15015 19.1478 4.30818 19.5294 4.58949 19.8107C4.87079 20.092 5.25232 20.25 5.65015 20.25H10.1501C10.548 20.25 10.9295 20.092 11.2108 19.8107C11.4921 19.5294 11.6501 19.1478 11.6501 18.75V14.25C11.6501 13.8522 11.4921 13.4706 11.2108 13.1893C10.9295 12.908 10.548 12.75 10.1501 12.75ZM10.1501 18.75H5.65015V14.25H10.1501V18.75ZM19.1501 12.75H14.6501C14.2523 12.75 13.8708 12.908 13.5895 13.1893C13.3082 13.4706 13.1501 13.8522 13.1501 14.25V18.75C13.1501 19.1478 13.3082 19.5294 13.5895 19.8107C13.8708 20.092 14.2523 20.25 14.6501 20.25H19.1501C19.548 20.25 19.9295 20.092 20.2108 19.8107C20.4921 19.5294 20.6501 19.1478 20.6501 18.75V14.25C20.6501 13.8522 20.4921 13.4706 20.2108 13.1893C19.9295 12.908 19.548 12.75 19.1501 12.75ZM19.1501 18.75H14.6501V14.25H19.1501V18.75Z" fill="#3B8BDB"/>
</svg>
