<svg width="25" height="24" viewBox="0 0 25 24" fill="none" xmlns="http://www.w3.org/2000/svg">
<path d="M22.6782 20.3259C20.5632 19.2947 19.3501 17.0841 19.3501 14.2509V12.6309C19.3509 12.3304 19.2611 12.0366 19.0923 11.7879C18.9236 11.5392 18.6838 11.3472 18.4042 11.2369L16.0689 10.3125C15.8851 10.239 15.7379 10.0959 15.6592 9.91431C15.5806 9.73274 15.5768 9.52743 15.6489 9.34313L17.6476 4.37438C17.7833 4.04826 17.8517 3.69812 17.8488 3.34492C17.846 2.99173 17.7718 2.64275 17.6309 2.31887C17.49 1.995 17.2852 1.7029 17.0287 1.46006C16.7722 1.21723 16.4693 1.02865 16.1382 0.905625C15.4934 0.669342 14.7818 0.693857 14.1547 0.97396C13.5276 1.25406 13.0345 1.76767 12.7801 2.40563C12.7797 2.40937 12.7797 2.41313 12.7801 2.41688L10.8095 7.40625C10.7362 7.59084 10.5927 7.73882 10.4104 7.81773C10.2282 7.89664 10.0221 7.90004 9.8373 7.82719L7.45418 6.85687C7.17941 6.74554 6.87768 6.71871 6.58758 6.77984C6.29748 6.84096 6.03222 6.98726 5.82574 7.2C3.85137 9.22969 2.85012 11.6016 2.85012 14.25C2.84493 16.9602 3.89306 19.5664 5.77324 21.5184C5.84369 21.5921 5.9284 21.6506 6.02221 21.6904C6.11602 21.7302 6.21696 21.7505 6.31887 21.75H22.3501C22.5196 21.7498 22.6841 21.6923 22.8167 21.5866C22.9493 21.481 23.0422 21.3336 23.0802 21.1684C23.1183 21.0032 23.0993 20.83 23.0263 20.677C22.9533 20.524 22.8306 20.4003 22.6782 20.3259ZM6.89449 8.25L9.27668 9.21562C9.55166 9.32563 9.84565 9.38027 10.1418 9.37641C10.4379 9.37254 10.7304 9.31024 11.0024 9.1931C11.2744 9.07595 11.5206 8.90625 11.7269 8.69373C11.9332 8.48122 12.0955 8.23007 12.2045 7.95469L14.1732 2.98594C14.4132 2.41313 15.0611 2.11688 15.6198 2.32969C15.7623 2.38254 15.8925 2.4637 16.0028 2.56828C16.113 2.67285 16.2009 2.79867 16.2612 2.93814C16.3214 3.07761 16.3528 3.22785 16.3535 3.37979C16.3541 3.53173 16.3239 3.68222 16.2648 3.82219L14.2586 8.79C14.0389 9.34414 14.0481 9.96279 14.2842 10.5101C14.5202 11.0575 14.9638 11.4888 15.5176 11.7094L17.8501 12.6309V14.25C17.8501 14.2809 17.8501 14.3119 17.8501 14.3438L5.82855 9.53531C6.14816 9.07847 6.50466 8.6486 6.89449 8.25ZM11.3945 20.25C10.2779 19.1789 9.4868 17.8139 9.11262 16.3125C9.06047 16.1226 8.93573 15.9608 8.76533 15.8621C8.59493 15.7634 8.39254 15.7357 8.20187 15.7849C8.0112 15.8342 7.84754 15.9564 7.74624 16.1253C7.64494 16.2942 7.61411 16.4961 7.66043 16.6875C7.98755 17.9791 8.57309 19.191 9.38168 20.25H6.64137C5.16216 18.602 4.34589 16.4645 4.35012 14.25C4.34094 13.0767 4.58827 11.9155 5.0748 10.8478L17.9936 16.0153C18.2748 17.7028 18.9836 19.1541 20.0457 20.2491L11.3945 20.25Z" fill="#3B8BDB"/>
</svg>
