<svg width="25" height="24" viewBox="0 0 25 24" fill="none" xmlns="http://www.w3.org/2000/svg">
<g clip-path="url(#clip0_41148_36214)">
<path d="M24.3632 10.5L18.0388 4.1325C16.3497 2.44681 14.0609 1.50008 11.6746 1.50008C9.28824 1.50008 6.9994 2.44681 5.31034 4.1325L5.3019 4.14093L4.01096 5.475C3.87724 5.61871 3.80519 5.80912 3.81028 6.00536C3.81537 6.20161 3.8972 6.38803 4.0382 6.52461C4.1792 6.66119 4.36813 6.73705 4.56444 6.7359C4.76074 6.73474 4.94877 6.65667 5.08815 6.51843L6.37534 5.18906C6.8932 4.6713 7.48417 4.23226 8.1294 3.88593L12.4888 8.25L3.48878 17.25C3.34945 17.3893 3.23893 17.5547 3.16353 17.7367C3.08813 17.9187 3.04932 18.1138 3.04932 18.3108C3.04932 18.5078 3.08813 18.7029 3.16353 18.8849C3.23893 19.0669 3.34945 19.2323 3.48878 19.3716L5.42846 21.3112C5.56776 21.4506 5.73313 21.5611 5.91514 21.6365C6.09715 21.7119 6.29223 21.7507 6.48925 21.7507C6.68626 21.7507 6.88134 21.7119 7.06335 21.6365C7.24536 21.5611 7.41074 21.4506 7.55003 21.3112L16.55 12.3112L17.8944 13.6556L19.55 15.3094C19.6893 15.4487 19.8547 15.5592 20.0367 15.6346C20.2187 15.71 20.4138 15.7488 20.6108 15.7488C20.8078 15.7488 21.0029 15.71 21.1849 15.6346C21.3669 15.5592 21.5323 15.4487 21.6716 15.3094L24.3613 12.6197C24.6423 12.3387 24.8004 11.9577 24.8007 11.5602C24.8011 11.1628 24.6437 10.7815 24.3632 10.5ZM6.48878 20.25L4.55003 18.3103L10.925 11.9353L12.8638 13.875L6.48878 20.25ZM16.0194 10.7175L13.925 12.8128L11.9853 10.875L14.0807 8.77968C14.1504 8.71003 14.2057 8.62731 14.2434 8.53626C14.2812 8.44522 14.3006 8.34762 14.3006 8.24906C14.3006 8.1505 14.2812 8.0529 14.2434 7.96185C14.2057 7.8708 14.1504 7.78809 14.0807 7.71843L9.64253 3.28125C10.9248 2.92012 12.2801 2.90703 13.5691 3.24332C14.858 3.57961 16.0342 4.25315 16.9766 5.19468L21.1222 9.3675L18.425 12.0619L17.0807 10.7175C17.011 10.6478 16.9283 10.5924 16.8372 10.5547C16.7462 10.517 16.6486 10.4975 16.55 10.4975C16.4515 10.4975 16.3539 10.517 16.2628 10.5547C16.1718 10.5924 16.0891 10.6478 16.0194 10.7175ZM20.6132 14.2481L19.4882 13.1231L22.175 10.4297L23.3 11.5547L20.6132 14.2481Z" fill="#3B8BDB"/>
</g>
<defs>
<clipPath id="clip0_41148_36214">
<rect width="24" height="24" fill="white" transform="translate(0.800049)"/>
</clipPath>
</defs>
</svg>
